<?xml version="1.0" standalone="no"?><!DOCTYPE svg PUBLIC "-//W3C//DTD SVG 1.1//EN" "http://www.w3.org/Graphics/SVG/1.1/DTD/svg11.dtd"><svg t="1692179934842" class="icon" viewBox="0 0 1024 1024" version="1.1" xmlns="http://www.w3.org/2000/svg" p-id="3550" data-spm-anchor-id="a313x.search_index.0.i10.50463a815vOtrf" xmlns:xlink="http://www.w3.org/1999/xlink" width="200" height="200"><path d="M64 64h896v896H64V64z m102.4 793.6h691.2V166.4H166.4v691.2z m360.32-144.64c-102.4 0-181.12-70.4-181.12-190.72 0-120.96 89.6-191.36 191.36-191.36 44.16 0 78.72 15.36 106.24 39.04l-53.12 72.96c-16.64-14.08-30.72-19.84-46.72-19.84-49.92 0-81.28 38.4-81.28 99.2 0 60.16 32.64 98.56 77.44 98.56 23.04 0 44.8-10.88 63.36-25.6l43.52 74.88c-35.2 31.36-81.28 42.88-119.68 42.88z" fill="#2c2c2c" p-id="3551" data-spm-anchor-id="a313x.search_index.0.i9.50463a815vOtrf" class="selected"></path></svg>