<?xml version="1.0" standalone="no"?><!DOCTYPE svg PUBLIC "-//W3C//DTD SVG 1.1//EN" "http://www.w3.org/Graphics/SVG/1.1/DTD/svg11.dtd"><svg t="1694335540889" class="icon" viewBox="0 0 1024 1024" version="1.1" xmlns="http://www.w3.org/2000/svg" p-id="5668" xmlns:xlink="http://www.w3.org/1999/xlink" width="200" height="200"><path d="M511.983593 1024C448.652538 1024 387.150464 1011.535486 329.297798 986.831913 273.379691 963.081843 223.233865 929.044243 180.138615 885.661131 137.043366 842.283763 103.221434 791.737862 79.553073 735.492463 55.082927 677.261069 42.666667 615.389406 42.666667 551.610731 42.666667 475.288561 61.25753 399.529306 96.389139 332.401869 130.356591 267.550498 179.699202 210.610071 239.122626 167.742483 255.629133 155.83514 278.568467 159.693683 290.365555 176.275219 302.158364 192.851012 298.39625 215.900309 281.889743 227.741598 231.671157 264.062443 189.998293 312.072361 161.363712 366.808521 131.309602 424.192672 116.078534 486.355842 116.078534 551.610731 116.078534 658.07175 157.273466 758.171273 232.073476 833.42649 306.833542 908.71043 406.24922 950.180785 511.983593 950.180785 617.679447 950.180785 717.127938 908.71043 791.927949 833.42649 866.726534 758.171273 907.888653 658.07175 907.888653 551.610731 907.888653 486.429079 892.690398 424.153899 862.597766 366.808521 833.963187 312.106825 792.256083 264.062443 742.038925 227.814833 725.565231 215.972111 721.730357 192.924247 733.561685 176.348454 745.398718 159.766918 768.298108 155.868169 784.771802 167.815721 844.229463 210.683309 893.643409 267.623733 927.572341 332.473668 962.74247 399.601105 981.333333 475.367541 981.333333 551.683968 981.333333 615.462643 968.917073 677.334306 944.40698 735.604471 920.778566 791.849871 886.923821 842.39577 843.827145 885.773139 800.731895 929.150509 750.58179 963.155081 694.669389 987.017156 636.778204 1011.56995 575.31465 1024 511.983593 1024L511.983593 1024ZM523.011708 511.391134C502.743089 511.391134 486.309342 494.921606 486.309342 474.481527L486.309342 36.944072C486.309342 16.581537 502.743089 0 523.011708 0 543.280329 0 559.754022 16.581537 559.754022 36.944072L559.754022 474.481527C559.754022 494.921606 543.280329 511.391134 523.011708 511.391134L523.011708 511.391134Z" fill="#5e5f6e" p-id="5669"></path></svg>