<?xml version="1.0" standalone="no"?><!DOCTYPE svg PUBLIC "-//W3C//DTD SVG 1.1//EN" "http://www.w3.org/Graphics/SVG/1.1/DTD/svg11.dtd"><svg t="1691772225417" class="icon" viewBox="0 0 1024 1024" version="1.1" xmlns="http://www.w3.org/2000/svg" p-id="1106" xmlns:xlink="http://www.w3.org/1999/xlink" width="200" height="200"><path d="M852.77 889.05H171.23A36.27 36.27 0 0 1 135 852.78V171.22A36.27 36.27 0 0 1 171.23 135H547a36.28 36.28 0 1 1 0 72.55H207.5v609h609V477a36.28 36.28 0 0 1 72.55 0v375.78a36.27 36.27 0 0 1-36.28 36.27z" fill="#1296db" p-id="1107"></path><path d="M465.4 594.88A36.28 36.28 0 0 1 439.75 533l366.17-366.22a36.27 36.27 0 0 1 51.3 51.3L491.05 584.25a36.12 36.12 0 0 1-25.65 10.63z" fill="#1296db" p-id="1108"></path><path d="M385.94 402.54v235.52h235.52l-135.7-99.82-99.82-135.7z" fill="#1296db" p-id="1109"></path><path d="M621.46 674.34H385.94a36.28 36.28 0 0 1-36.28-36.28V402.54a36.28 36.28 0 0 1 65.5-21.49l96.55 131.25L643 608.84a36.28 36.28 0 0 1-21.5 65.5z m-199.24-72.56h88.7l-46.66-34.31a36.5 36.5 0 0 1-7.72-7.73l-34.32-46.65z" fill="#1296db" p-id="1110"></path></svg>