<?xml version="1.0" standalone="no"?><!DOCTYPE svg PUBLIC "-//W3C//DTD SVG 1.1//EN" "http://www.w3.org/Graphics/SVG/1.1/DTD/svg11.dtd"><svg t="1691144157069" class="icon" viewBox="0 0 1024 1024" version="1.1" xmlns="http://www.w3.org/2000/svg" p-id="17473" xmlns:xlink="http://www.w3.org/1999/xlink" width="200" height="200"><path d="M0 0m136.533333 0l750.933334 0q136.533333 0 136.533333 136.533333l0 750.933334q0 136.533333-136.533333 136.533333l-750.933334 0q-136.533333 0-136.533333-136.533333l0-750.933334q0-136.533333 136.533333-136.533333Z" fill="#f4ea2a" p-id="17474"></path><path d="M715.946667 322.696533a168.96 168.96 0 0 1-222.8224 253.166934l-0.9216 1.024-44.509867 44.509866 44.509867 44.509867a21.504 21.504 0 0 1-27.989334 32.494933l-2.389333-2.048-44.544-44.544-29.354667 29.320534 44.544 44.509866a21.504 21.504 0 0 1-27.989333 32.494934l-2.389333-2.048-44.544-44.544-32.597334 32.5632a21.504 21.504 0 0 1-32.494933-27.989334l2.082133-2.389333 167.253334-167.253333 1.024-0.9216a168.96 168.96 0 0 1 253.1328-222.856534z m-30.378667 30.4128a125.952 125.952 0 1 0-178.176 178.141867 125.952 125.952 0 0 0 178.176-178.141867z m-41.301333 41.301334a67.584 67.584 0 1 1-95.573334 95.573333 67.584 67.584 0 0 1 95.573334-95.573333z m-30.4128 30.378666a24.576 24.576 0 1 0-34.747734 34.781867 24.576 24.576 0 0 0 34.747734-34.781867z" fill="#FFAE00" p-id="17475"></path></svg>