<?xml version="1.0" standalone="no"?><!DOCTYPE svg PUBLIC "-//W3C//DTD SVG 1.1//EN" "http://www.w3.org/Graphics/SVG/1.1/DTD/svg11.dtd"><svg t="1697273293161" class="icon" viewBox="0 0 1024 1024" version="1.1" xmlns="http://www.w3.org/2000/svg" p-id="3264" width="20" height="20" xmlns:xlink="http://www.w3.org/1999/xlink"><path d="M448 456.021333V96a30.72 30.72 0 0 1 9.514667-22.485333 30.72 30.72 0 0 1 22.485333-9.514667h192a31.146667 31.146667 0 0 1 23.04 8.96c5.973333 6.016 8.96 13.696 8.96 23.04a31.146667 31.146667 0 0 1-8.96 23.04 31.146667 31.146667 0 0 1-23.04 8.96H512v128h160a31.146667 31.146667 0 0 1 23.04 8.96c5.973333 6.016 8.96 13.696 8.96 23.04a31.146667 31.146667 0 0 1-8.96 23.04 31.146667 31.146667 0 0 1-23.04 8.96H512v128c69.333333 1.322667 127.658667 24.533333 175.018667 69.504 47.36 45.013333 73.984 101.802667 80 170.496 2.645333 69.333333-16.853333 129.152-58.496 179.498667-41.685333 50.346667-96.512 80.469333-164.522667 90.453333-69.333333 7.381333-130.346667-8.106667-183.04-46.464-52.650667-38.314667-86.314667-91.52-100.949333-159.488-11.349333-68.010667 0.469333-129.706667 35.498666-185.002667 34.986667-55.296 85.802667-92.288 152.490667-110.976zM512 896c54.656-1.365333 100.010667-20.010667 136.021333-56.021333 35.968-35.968 54.613333-81.28 55.978667-135.978667-1.365333-54.656-20.010667-100.010667-56.021333-136.021333-35.968-35.968-81.28-54.613333-135.978667-55.978667-54.656 1.322667-100.010667 20.010667-136.021333 56.021333-35.968 35.968-54.613333 81.28-55.978667 135.978667 1.322667 54.698667 20.010667 100.010667 55.978667 136.021333 36.010667 35.968 81.365333 54.613333 136.021333 55.978667z" fill="#5e5f6e" fill-opacity=".96" p-id="3265"></path></svg>