<?xml version="1.0" standalone="no"?><!DOCTYPE svg PUBLIC "-//W3C//DTD SVG 1.1//EN" "http://www.w3.org/Graphics/SVG/1.1/DTD/svg11.dtd"><svg t="1691858134939" class="icon" viewBox="0 0 1024 1024" version="1.1" xmlns="http://www.w3.org/2000/svg" p-id="1888" xmlns:xlink="http://www.w3.org/1999/xlink" width="200" height="200"><path d="M512 60.8c-246.4 0-448 201.6-448 448s201.6 448 448 448 448-201.6 448-448-201.6-448-448-448z m0 832c-211.2 0-384-172.8-384-384s172.8-384 384-384 384 172.8 384 384c0 214.4-172.8 384-384 384z" fill="#4098fc" p-id="1889"></path><path d="M320 480h384c19.2 0 32-12.8 32-32s-12.8-32-32-32H419.2l51.2-38.4c12.8-9.6 16-32 6.4-44.8-9.6-12.8-32-16-44.8-6.4l-128 96c-9.6 9.6-16 22.4-12.8 35.2s16 22.4 28.8 22.4z m384 64H320c-19.2 0-32 12.8-32 32s12.8 32 32 32h284.8l-51.2 38.4c-12.8 9.6-16 32-6.4 44.8 6.4 9.6 16 12.8 25.6 12.8 6.4 0 12.8-3.2 19.2-6.4l128-96c9.6-9.6 16-22.4 12.8-35.2-3.2-12.8-16-22.4-28.8-22.4z" fill="#4098fc" p-id="1890"></path></svg>