<?xml version="1.0" standalone="no"?><!DOCTYPE svg PUBLIC "-//W3C//DTD SVG 1.1//EN" "http://www.w3.org/Graphics/SVG/1.1/DTD/svg11.dtd"><svg t="1691814463765" class="icon" viewBox="0 0 1024 1024" version="1.1" xmlns="http://www.w3.org/2000/svg" p-id="1708" xmlns:xlink="http://www.w3.org/1999/xlink" width="200" height="200"><path d="M852.77 889.05H171.23A36.27 36.27 0 0 1 135 852.78V171.22A36.27 36.27 0 0 1 171.23 135H375a36.28 36.28 0 0 1 0 72.55H207.5v609h609V649a36.28 36.28 0 1 1 72.55 0v203.78a36.27 36.27 0 0 1-36.28 36.27z" fill="#2F3240" p-id="1709"></path><path d="M407.15 653.13a36.28 36.28 0 0 1-25.66-61.93L747.66 225A36.28 36.28 0 1 1 799 276.34L432.8 642.51a36.17 36.17 0 0 1-25.65 10.62z" fill="#4098fc" p-id="1710" data-spm-anchor-id="a313x.manage_type_myprojects.0.i12.ebfb3a81jUyG3n" class="selected"></path><path d="M852.78 414.94V171.23H609.06l140.42 103.29 103.3 140.42z" fill="#4098fc" p-id="1711" data-spm-anchor-id="a313x.manage_type_myprojects.0.i13.ebfb3a81jUyG3n" class="selected"></path><path d="M852.78 451.22a36.29 36.29 0 0 1-29.23-14.78l-100-136-136-100a36.28 36.28 0 0 1 21.5-65.5h243.72a36.28 36.28 0 0 1 36.28 36.28V415a36.28 36.28 0 0 1-36.27 36.27zM719.6 207.5l51.4 37.8a36.23 36.23 0 0 1 7.7 7.7l37.8 51.38V207.5z" fill="#4098fc" p-id="1712" data-spm-anchor-id="a313x.manage_type_myprojects.0.i10.ebfb3a81jUyG3n" class="selected"></path></svg>