<?xml version="1.0" standalone="no"?><!DOCTYPE svg PUBLIC "-//W3C//DTD SVG 1.1//EN" "http://www.w3.org/Graphics/SVG/1.1/DTD/svg11.dtd"><svg t="1691858119466" class="icon" viewBox="0 0 1024 1024" version="1.1" xmlns="http://www.w3.org/2000/svg" p-id="1642" xmlns:xlink="http://www.w3.org/1999/xlink" width="200" height="200"><path d="M768 298.666667h32a32 32 0 0 0-32-32V298.666667z m0 170.666666h-32 32zM256 298.666667v-32a32 32 0 0 0-32 32H256z m480 0v170.666666h64V298.666667h-64z m0 170.666666v341.333334h64v-341.333334h-64zM682.666667 864H341.333333v64h341.333334v-64zM288 810.666667V298.666667h-64v512h64zM256 330.666667h512v-64H256v64z m0-170.666667h512v-64H256v64zM117.333333 298.666667A138.666667 138.666667 0 0 1 256 160v-64A202.666667 202.666667 0 0 0 53.333333 298.666667h64zM256 437.333333A138.666667 138.666667 0 0 1 117.333333 298.666667h-64A202.666667 202.666667 0 0 0 256 501.333333v-64zM906.666667 298.666667A138.666667 138.666667 0 0 1 768 437.333333v64A202.666667 202.666667 0 0 0 970.666667 298.666667h-64z m64 0A202.666667 202.666667 0 0 0 768 96v64A138.666667 138.666667 0 0 1 906.666667 298.666667h64z m-234.666667 512c0 29.44-23.893333 53.333333-53.333333 53.333333v64A117.333333 117.333333 0 0 0 800 810.666667h-64zM341.333333 864c-29.44 0-53.333333-23.893333-53.333333-53.333333h-64A117.333333 117.333333 0 0 0 341.333333 928v-64zM619.946667 662.613333a32 32 0 0 0-45.226667-45.226666l45.226667 45.226666z m-138.112 32.554667l22.613333-22.613333-22.613333 22.613333z m-32.554667-77.781333a32 32 0 0 0-45.226667 45.226666l45.226667-45.226666zM544 469.333333a32 32 0 0 0-64 0h64z m-64 213.333334a32 32 0 0 0 64 0h-64z m94.72-65.28l-55.168 55.168 45.226667 45.226666 55.168-55.168-45.226667-45.226666z m-70.272 55.168L449.28 617.386667l-45.226667 45.226666 55.168 55.168 45.226667-45.226666z m15.104 0a10.666667 10.666667 0 0 1-15.104 0l-45.226667 45.226666a74.666667 74.666667 0 0 0 105.557334 0l-45.226667-45.226666zM480 469.333333v213.333334h64v-213.333334h-64z" p-id="1643" fill="#4098fc"></path></svg>